<?xml version="1.0" standalone="no"?>
<!DOCTYPE svg PUBLIC "-//W3C//DTD SVG 20010904//EN"
 "http://www.w3.org/TR/2001/REC-SVG-20010904/DTD/svg10.dtd">
<svg version="1.0" xmlns="http://www.w3.org/2000/svg"
 width="276.000000pt" height="394.000000pt" viewBox="0 0 276.000000 394.000000"
 preserveAspectRatio="xMidYMid meet">
<g transform="translate(0.000000,394.000000) scale(0.100000,-0.100000)"
fill="#000000" stroke="none">
<path d="M160 2000 l0 -1880 1230 0 1230 0 0 1880 0 1880 -1230 0 -1230 0 0
-1880z m2450 945 l0 -915 -1220 0 -1220 0 0 915 0 915 1220 0 1220 0 0 -915z
m0 -1130 l0 -205 -1220 0 -1220 0 0 205 0 205 1220 0 1220 0 0 -205z m0 -255
l0 -40 -1220 0 -1220 0 0 40 0 40 1220 0 1220 0 0 -40z m0 -85 l0 -35 -1220 0
-1220 0 0 35 0 35 1220 0 1220 0 0 -35z m0 -85 l0 -40 -1220 0 -1220 0 0 40 0
40 1220 0 1220 0 0 -40z m0 -652 l0 -603 -1220 0 -1220 0 0 603 0 602 1220 0
1220 0 0 -602z"/>
<path d="M370 2950 l0 -870 1020 0 1020 0 0 380 0 380 31 0 c62 0 119 72 104
131 -13 49 -62 89 -109 89 l-26 0 0 380 0 380 -1020 0 -1020 0 0 -870z m2030
481 c0 -367 -1 -379 -19 -384 -25 -6 -61 -64 -61 -97 0 -31 32 -85 59 -100 21
-10 21 -18 21 -385 l0 -375 -1010 0 -1010 0 0 860 0 860 1010 0 1010 0 0 -379z
m80 -396 c83 -43 61 -167 -32 -182 -111 -17 -156 145 -53 188 30 12 53 10 85
-6z"/>
<path d="M2243 3622 c-13 -2 -36 -17 -53 -33 -41 -42 -42 -96 -1 -141 25 -28
36 -33 76 -33 40 0 51 5 76 33 39 44 39 90 -1 135 -30 35 -56 45 -97 39z m68
-22 c10 -6 26 -24 35 -41 31 -61 -12 -131 -82 -131 -31 0 -44 7 -67 32 -24 27
-28 39 -23 69 10 64 80 101 137 71z"/>
<path d="M2237 3552 c-32 -35 -15 -82 28 -82 46 0 62 57 23 84 -28 20 -31 20
-51 -2z m61 -28 c4 -30 -21 -48 -47 -34 -21 11 -28 40 -14 54 15 15 58 1 61
-20z"/>
<path d="M1388 3592 l-708 -2 0 -180 0 -180 705 0 c388 0 708 0 713 0 10 0 15
352 5 359 -5 3 -326 5 -715 3z m702 -182 l0 -170 -700 0 -700 0 0 170 0 170
700 0 700 0 0 -170z"/>
<path d="M2356 3361 c-3 -5 2 -15 12 -22 15 -12 16 -12 5 2 -7 9 -10 19 -6 22
3 4 4 7 0 7 -3 0 -8 -4 -11 -9z"/>
<path d="M2195 3307 c-28 -28 -35 -43 -35 -75 0 -57 47 -102 106 -102 35 0 47
5 73 35 41 47 42 93 4 135 -20 22 -40 33 -70 37 -39 5 -46 2 -78 -30z m140
-19 c30 -35 31 -62 6 -105 -42 -67 -149 -49 -166 29 -21 94 97 151 160 76z"/>
<path d="M2226 3258 c-17 -24 -8 -51 23 -67 39 -22 82 44 49 77 -19 19 -55 14
-72 -10z m64 -3 c20 -25 8 -50 -25 -50 -21 0 -31 5 -33 18 -4 21 14 47 33 47
7 0 18 -7 25 -15z"/>
<path d="M710 2956 c-27 -33 18 -72 48 -42 13 13 14 20 6 34 -15 23 -38 26
-54 8z m37 -12 c8 -20 -8 -36 -26 -25 -15 10 -8 41 9 41 6 0 13 -7 17 -16z"/>
<path d="M1274 2952 c-9 -14 -9 -22 1 -35 16 -22 28 -21 49 1 15 18 15 20 -2
35 -24 22 -34 21 -48 -1z m43 -8 c7 -18 -17 -38 -31 -24 -11 11 -1 40 14 40 6
0 13 -7 17 -16z"/>
<path d="M1209 2933 c-13 -16 -12 -17 4 -4 9 7 17 15 17 17 0 8 -8 3 -21 -13z"/>
<path d="M1763 2805 c0 -8 4 -12 9 -9 5 3 6 10 3 15 -9 13 -12 11 -12 -6z"/>
<path d="M967 2583 l2 -218 358 0 358 0 3 218 2 217 -362 0 -363 0 2 -217z
m705 0 l-3 -208 -344 0 -345 0 0 208 0 207 348 0 347 0 -3 -207z"/>
<path d="M1885 2784 c-99 -51 -136 -157 -88 -250 l20 -39 139 0 139 0 23 45
c25 51 28 96 8 144 -39 94 -158 143 -241 100z m159 -22 c62 -36 94 -115 75
-187 -19 -72 -27 -75 -165 -75 -122 0 -124 0 -141 26 -9 14 -18 50 -21 79 -11
138 131 227 252 157z"/>
<path d="M1876 2619 c-17 -25 -12 -45 16 -60 15 -8 24 -7 39 7 24 21 24 36 1
57 -25 22 -38 21 -56 -4z m59 -24 c0 -22 -31 -33 -47 -17 -17 17 -1 44 24 40
15 -2 23 -10 23 -23z"/>
<path d="M1976 2618 c-29 -40 18 -86 54 -53 25 22 25 37 2 58 -25 22 -38 21
-56 -5z m57 -11 c8 -21 -8 -39 -29 -35 -11 2 -20 13 -22 26 -3 18 1 22 21 22
14 0 27 -6 30 -13z"/>
<path d="M2090 2456 c0 -2 7 -7 16 -10 8 -3 12 -2 9 4 -6 10 -25 14 -25 6z"/>
<path d="M2129 2433 c-12 -16 -12 -17 2 -6 9 7 20 9 24 5 5 -4 5 -1 1 6 -9 16
-11 15 -27 -5z"/>
<path d="M2389 3002 c-47 -39 -16 -122 45 -122 29 0 66 40 66 71 0 30 -38 69
-67 69 -11 0 -31 -8 -44 -18z m89 -19 c18 -24 15 -50 -8 -73 -24 -24 -38 -25
-68 -4 -14 10 -22 26 -22 44 0 52 67 75 98 33z"/>
<path d="M289 3803 c0 -5 0 -61 1 -125 1 -90 -3 -123 -14 -141 -14 -20 -14
-25 -1 -45 12 -16 15 -48 14 -136 0 -63 2 -119 5 -124 3 -6 15 -8 26 -5 19 5
20 14 20 129 0 71 4 125 10 129 6 3 10 17 10 30 0 13 -4 27 -10 30 -6 4 -10
60 -10 136 l0 129 -25 0 c-14 0 -25 -3 -26 -7z m41 -126 c0 -94 -3 -114 -15
-114 -12 0 -15 20 -15 114 0 94 3 113 15 113 12 0 15 -19 15 -113z m11 -143
c9 -11 10 -20 2 -32 -13 -22 -43 -22 -56 -1 -24 38 25 68 54 33z m-11 -179 c0
-96 -3 -115 -15 -115 -12 0 -15 19 -15 115 0 96 3 115 15 115 12 0 15 -19 15
-115z"/>
<path d="M306 3521 c-10 -11 -13 -22 -8 -25 5 -3 17 3 26 13 10 11 13 22 8 25
-5 3 -17 -3 -26 -13z m24 5 c0 -2 -8 -10 -17 -17 -16 -13 -17 -12 -4 4 13 16
21 21 21 13z"/>
<path d="M2447 3804 c-4 -4 -7 -61 -7 -126 0 -77 -4 -125 -12 -138 -10 -16
-10 -24 0 -40 8 -13 12 -62 12 -143 0 -68 2 -126 5 -129 3 -3 17 -3 31 0 l25
5 -2 124 c-1 80 3 129 10 136 14 14 14 40 1 53 -5 5 -11 66 -12 134 -3 117 -4
125 -23 128 -12 2 -24 0 -28 -4z m33 -123 c0 -88 -3 -110 -15 -115 -13 -5 -15
11 -15 109 0 96 3 115 15 115 12 0 15 -19 15 -109z m20 -150 c15 -29 -1 -31
-29 -4 -24 23 -24 23 -3 23 12 0 26 -9 32 -19z m-37 -26 c15 -21 16 -25 3 -25
-13 0 -36 28 -36 44 0 13 16 4 33 -19z m17 -150 c0 -96 -3 -115 -15 -115 -12
0 -15 19 -15 115 0 96 3 115 15 115 12 0 15 -19 15 -115z"/>
<path d="M270 1173 c0 -80 -4 -133 -11 -140 -13 -13 -9 -44 6 -43 5 0 10 10
10 23 0 17 6 22 25 22 l25 0 0 130 0 130 -27 3 -28 3 0 -128z m42 -31 c3 -67
0 -82 -12 -82 -12 0 -15 19 -15 108 0 60 4 110 10 114 11 8 13 -10 17 -140z"/>
<path d="M2457 1293 c-2 -5 -4 -60 -3 -123 1 -82 -2 -121 -12 -137 -11 -18
-11 -26 -1 -45 9 -15 13 -65 14 -143 l0 -120 28 -3 27 -3 0 125 c0 83 4 133
12 146 10 16 10 24 0 40 -8 13 -12 63 -12 145 l0 125 -24 0 c-14 0 -27 -3 -29
-7z m41 -125 c2 -97 0 -115 -13 -115 -13 0 -15 19 -15 120 0 90 3 118 13 115
8 -3 13 -39 15 -120z m20 -154 c2 -11 -4 -26 -12 -33 -31 -26 -71 14 -45 45
17 21 53 14 57 -12z m-18 -169 c0 -96 -3 -115 -15 -115 -12 0 -15 19 -15 115
0 96 3 115 15 115 12 0 15 -19 15 -115z"/>
<path d="M2466 1022 c-3 -5 3 -17 13 -26 11 -10 22 -13 25 -8 3 5 -3 17 -13
26 -11 10 -22 13 -25 8z m25 -19 c13 -16 12 -17 -3 -4 -17 13 -22 21 -14 21 2
0 10 -8 17 -17z"/>
<path d="M873 1263 c284 -2 750 -2 1035 0 284 1 51 2 -518 2 -569 0 -802 -1
-517 -2z"/>
<path d="M360 1180 c0 -7 363 -10 1030 -10 686 0 1030 3 1030 10 0 7 -344 10
-1030 10 -667 0 -1030 -4 -1030 -10z"/>
<path d="M322 1028 c-7 -7 -12 -8 -12 -4 0 5 -7 3 -15 -4 -8 -7 -13 -16 -10
-20 3 -5 1 -11 -5 -15 -6 -4 -10 -59 -10 -136 l0 -129 30 0 30 0 0 129 c0 76
4 132 10 136 12 8 13 42 2 49 -5 3 -14 0 -20 -6z m18 -18 c0 -11 -29 -40 -41
-40 -6 0 -6 42 0 45 10 5 41 1 41 -5z m-25 -165 c0 -96 -3 -115 -15 -115 -12
0 -15 19 -15 115 0 96 3 115 15 115 12 0 15 -19 15 -115z"/>
<path d="M2536 668 c3 -5 10 -6 15 -3 13 9 11 12 -6 12 -8 0 -12 -4 -9 -9z"/>
<path d="M1081 306 c-13 -16 -5 -42 15 -50 24 -9 16 -28 -8 -21 -18 6 -20 5
-12 -5 13 -13 54 -5 54 10 0 5 -11 17 -25 26 -30 20 -33 38 -5 31 23 -6 28 8
6 16 -8 3 -19 0 -25 -7z"/>
<path d="M1158 313 c-14 -3 -18 -15 -18 -49 0 -42 1 -44 28 -43 23 2 24 2 5 6
-25 5 -32 33 -8 33 8 0 15 5 15 10 0 6 -7 10 -15 10 -8 0 -15 5 -15 10 0 6 9
10 20 10 11 0 20 5 20 10 0 10 -3 11 -32 3z"/>
<path d="M1217 313 c-14 -4 -17 -13 -15 -46 3 -37 6 -42 28 -44 14 -1 18 0 8
3 -21 6 -24 30 -5 38 10 5 10 7 0 12 -18 8 -16 24 2 24 8 0 15 5 15 10 0 10
-3 11 -33 3z"/>
<path d="M1460 309 c0 -5 5 -9 11 -9 6 0 9 -15 8 -34 -2 -19 0 -38 4 -42 4 -4
7 11 7 33 0 24 5 43 13 46 6 2 0 6 -15 9 -16 3 -28 1 -28 -3z"/>
<path d="M1548 313 c-14 -4 -18 -15 -18 -49 0 -42 1 -44 28 -43 23 2 24 2 5 6
-25 5 -31 28 -10 37 10 5 10 7 0 12 -20 9 -15 22 10 26 12 2 18 6 12 9 -5 3
-18 4 -27 2z"/>
<path d="M1686 304 c-9 -8 -16 -18 -17 -22 0 -4 -2 -15 -4 -24 -2 -9 3 -23 11
-29 12 -10 18 -9 32 5 16 16 16 18 -5 35 -20 17 -20 19 -5 35 9 9 13 16 10 16
-4 0 -14 -7 -22 -16z m10 -71 c-11 -11 -19 6 -11 24 8 17 8 17 12 0 3 -10 2
-21 -1 -24z"/>
<path d="M1311 263 c2 -45 2 -46 8 -13 l6 35 14 -32 c18 -45 26 -41 26 12 0
25 -3 45 -7 45 -5 0 -8 -12 -8 -27 l-1 -28 -15 28 c-8 15 -17 27 -19 27 -3 0
-4 -21 -4 -47z"/>
<path d="M1387 304 c-12 -12 -8 -61 7 -73 25 -21 47 -2 44 38 -2 27 -8 37 -23
39 -12 2 -24 0 -28 -4z m33 -40 c0 -24 -4 -34 -12 -32 -24 8 -22 68 2 68 5 0
10 -16 10 -36z"/>
<path d="M1624 294 c-15 -13 -16 -15 -2 -10 13 4 18 -3 21 -32 3 -33 4 -32 5
11 1 26 1 47 -1 47 -2 0 -12 -7 -23 -16z"/>
<path d="M1591 227 c2 -1 13 -9 24 -17 19 -14 19 -14 6 3 -7 9 -18 17 -24 17
-6 0 -8 -1 -6 -3z"/>
</g>
</svg>
